<svg width="140" height="41" viewBox="0 0 140 41" fill="none" xmlns="http://www.w3.org/2000/svg">
<g clip-path="url(#clip0_1_226)">
<path d="M57.3126 30.172L58.497 27.3935V14.5443H57.3768L53.7892 18.6819H53.6609V13.8271H68.5936V18.6819H68.4653L64.8678 14.5443H63.718V27.3935L64.8875 30.172V30.3475H57.3126V30.172Z" fill="black"/>
<path d="M78.2756 27.4286C77.9903 27.9066 77.6598 28.3551 77.2887 28.7677C76.9332 29.1572 76.5263 29.4947 76.0797 29.7708C75.6112 30.0554 75.1041 30.2684 74.5745 30.4027C73.9642 30.5542 73.3374 30.6266 72.7092 30.6183C71.866 30.6337 71.028 30.482 70.2418 30.172C69.5406 29.8963 68.9061 29.4704 68.3814 28.9232C67.8673 28.375 67.4678 27.7267 67.2069 27.0174C66.9261 26.2455 66.7873 25.4278 66.7973 24.605C66.7923 23.7369 66.9498 22.8757 67.2612 22.0673C67.5462 21.3148 67.9833 20.6314 68.5442 20.0612C69.1067 19.4929 69.7788 19.0489 70.5182 18.7572C71.3452 18.4376 72.2242 18.2793 73.1089 18.2908C73.9041 18.2776 74.6939 18.4242 75.4332 18.7221C76.0761 18.9842 76.6575 19.3808 77.1395 19.8863C77.6216 20.3918 77.9936 20.9948 78.2312 21.656C78.4809 22.3395 78.6063 23.0635 78.6013 23.7925H71.6926V23.8377C71.7142 24.4663 71.8273 25.0883 72.0282 25.6833C72.1949 26.172 72.4529 26.6232 72.7882 27.0123C73.0938 27.3627 73.4757 27.6358 73.9034 27.8098C74.3578 27.9894 74.8421 28.0779 75.3296 28.0706C75.6357 28.0735 75.9414 28.0466 76.2425 27.9903C76.499 27.9438 76.7515 27.8767 76.9975 27.7897C77.2048 27.7193 77.4061 27.6321 77.5996 27.5289L78.0486 27.2681L78.2756 27.4286ZM72.8869 18.9026C72.7766 18.9016 72.6678 18.9285 72.5704 18.9811C72.473 19.0336 72.3901 19.1101 72.3292 19.2035C72.1548 19.4711 72.034 19.7711 71.9739 20.0862C71.8714 20.5513 71.8087 21.0245 71.7864 21.5005C71.7519 22.0572 71.737 22.6842 71.737 23.3863L73.9034 23.1606C73.9034 22.3531 73.9034 21.656 73.859 21.1545C73.8413 20.7129 73.7885 20.2734 73.7011 19.8405C73.6608 19.5795 73.5536 19.3338 73.3902 19.1283C73.3268 19.0567 73.2491 18.9995 73.1623 18.9606C73.0756 18.9217 72.9817 18.902 72.8869 18.9026Z" fill="black"/>
<path d="M91.0715 27.4286C90.7944 27.9121 90.4632 28.3615 90.0846 28.7677C89.3419 29.5646 88.3923 30.1314 87.3458 30.4027C86.7402 30.553 86.1185 30.6255 85.4952 30.6183C84.6852 30.6287 83.8803 30.4858 83.1216 30.1971C82.4317 29.9299 81.8058 29.5161 81.2859 28.9834C80.7568 28.4434 80.3464 27.7955 80.0818 27.0826C79.7927 26.2971 79.6505 25.4636 79.6623 24.6251C79.6518 23.7422 79.8197 22.8665 80.1558 22.0522C80.4707 21.29 80.9437 20.6057 81.5425 20.0461C82.1718 19.469 82.9084 19.0256 83.7088 18.7421C84.6125 18.421 85.5645 18.2632 86.5217 18.2757C86.8819 18.2757 87.2471 18.2757 87.6172 18.3309C87.9873 18.3861 88.3377 18.4111 88.6831 18.4663C89.0285 18.5215 89.3444 18.5867 89.6355 18.6619C89.8972 18.7223 90.1544 18.8011 90.4053 18.8976L89.8132 22.7243H89.5763C89.0433 21.8516 88.54 21.0943 88.0663 20.4624C87.6187 19.8638 87.1235 19.3036 86.5858 18.7873H86.5069C86.2215 18.8131 85.955 18.9432 85.7568 19.1534C85.506 19.4133 85.3096 19.7221 85.1794 20.0612C85.0108 20.5129 84.8917 20.9822 84.8241 21.4604C84.7371 22.0615 84.6959 22.6685 84.7007 23.276C84.6892 23.972 84.7756 24.6661 84.9573 25.3372C85.099 25.8797 85.3401 26.3902 85.6679 26.8418C85.9542 27.2312 86.3259 27.5472 86.7536 27.7646C87.1851 27.9728 87.6578 28.0775 88.1353 28.0706C88.4062 28.0705 88.6767 28.0504 88.9446 28.0104C89.2111 27.9653 89.4381 27.9101 89.7046 27.8449C89.9336 27.7796 90.1565 27.694 90.3708 27.5891C90.5578 27.4989 90.7362 27.3915 90.9038 27.2681L91.0715 27.4286Z" fill="black"/>
<path d="M97.7582 13.0398V20.1765C98.0008 19.9218 98.2614 19.6855 98.5379 19.4694C98.8308 19.2388 99.1448 19.0373 99.4755 18.8675C99.8251 18.6885 100.192 18.5473 100.571 18.4462C100.981 18.3419 101.402 18.2896 101.824 18.2908C102.29 18.2886 102.753 18.3684 103.191 18.5265C103.605 18.6743 103.986 18.9007 104.317 19.1935C104.633 19.4722 104.89 19.8135 105.072 20.1966C105.258 20.6101 105.353 21.0606 105.348 21.5156V28.0856L106.31 30.1971V30.3726H99.6235V30.1971L100.467 28.0856V21.631C100.487 21.2561 100.375 20.8863 100.152 20.5878C100.036 20.4535 99.8905 20.3483 99.7279 20.2804C99.5652 20.2126 99.3893 20.1839 99.2139 20.1966C98.9282 20.1931 98.6447 20.2477 98.38 20.3571C98.1459 20.4585 97.9344 20.6069 97.7582 20.7934V28.0856L98.607 30.1971V30.3726H91.9055V30.1971L92.8678 28.0856V15.8032L91.9401 14.2986V14.1532L97.62 12.9244L97.7582 13.0398Z" fill="black"/>
<path d="M107.292 18.4513C107.272 17.6811 107.454 16.9193 107.82 16.2445C108.18 15.6337 108.677 15.1182 109.271 14.7399C109.942 14.3227 110.678 14.0258 111.447 13.8623C112.335 13.6704 113.24 13.5762 114.147 13.5814C114.559 13.5807 114.971 13.6025 115.38 13.6466C115.795 13.6867 116.195 13.7419 116.575 13.8071C116.955 13.8723 117.325 13.9475 117.665 14.0278C118.006 14.108 118.312 14.1933 118.578 14.2735L118.914 18.702H118.756C118.661 18.4805 118.554 18.2645 118.435 18.055C118.287 17.8093 118.109 17.5535 117.912 17.2676C117.714 16.9818 117.492 16.7059 117.251 16.415C117.009 16.1242 116.757 15.8483 116.501 15.5925C116.251 15.3464 115.987 15.1153 115.711 14.9004C115.466 14.7076 115.198 14.549 114.912 14.429C114.639 14.3498 114.356 14.3093 114.073 14.3086H113.411C113.121 14.3033 112.833 14.3632 112.568 14.4842C112.333 14.5976 112.123 14.7579 111.951 14.9556C111.785 15.1537 111.658 15.3817 111.576 15.6276C111.487 15.8787 111.442 16.1434 111.442 16.41C111.446 16.7982 111.58 17.1735 111.822 17.4733C112.098 17.817 112.42 18.1193 112.78 18.371C113.165 18.6553 113.571 18.9101 113.994 19.1333L115.252 19.7954C115.854 20.1297 116.436 20.4641 116.999 20.7984C117.538 21.1404 118.035 21.5462 118.479 22.0071C118.93 22.46 119.299 22.9896 119.57 23.5719C119.844 24.2033 119.979 24.888 119.965 25.578C119.993 26.3657 119.824 27.1477 119.471 27.8499C119.123 28.4852 118.628 29.0254 118.03 29.4247C117.363 29.8574 116.627 30.168 115.854 30.3425C114.962 30.5478 114.05 30.6471 113.135 30.6384C112.642 30.6384 112.114 30.6384 111.615 30.5883C111.117 30.5381 110.628 30.508 110.184 30.4478C109.74 30.3876 109.315 30.3074 108.936 30.2221C108.6 30.1486 108.27 30.0497 107.949 29.9262L107.623 25.2821H107.815C108.205 25.8488 108.605 26.4055 109.005 26.9572C109.387 27.4805 109.806 27.975 110.258 28.4367C110.664 28.8511 111.124 29.2071 111.625 29.4949C112.09 29.7578 112.613 29.8959 113.145 29.8962H113.441C113.801 29.9049 114.157 29.8276 114.482 29.6705C114.761 29.5281 115.01 29.3302 115.213 29.0887C115.41 28.8614 115.563 28.5974 115.662 28.3113C115.757 28.0462 115.808 27.7662 115.81 27.4838C115.81 27.1117 115.696 26.7487 115.484 26.4456C115.247 26.1045 114.961 25.8019 114.635 25.5479C114.246 25.2389 113.834 24.9622 113.401 24.7204C112.908 24.4495 112.454 24.1787 111.956 23.9029C111.457 23.627 110.83 23.2559 110.278 22.8998C109.745 22.5605 109.249 22.1655 108.797 21.7212C108.363 21.3024 107.998 20.8146 107.717 20.2768C107.431 19.7125 107.285 19.0858 107.292 18.4513Z" fill="black"/>
<path d="M132.252 27.4286C131.975 27.9121 131.644 28.3615 131.265 28.7677C130.515 29.5695 129.554 30.1367 128.497 30.4027C127.891 30.553 127.27 30.6255 126.646 30.6184C125.836 30.6287 125.031 30.4858 124.273 30.1971C123.583 29.9299 122.957 29.5161 122.437 28.9834C121.915 28.4415 121.512 27.7938 121.253 27.0826C120.964 26.2971 120.821 25.4636 120.833 24.6251C120.823 23.7422 120.991 22.8665 121.327 22.0522C121.642 21.29 122.115 20.6057 122.713 20.0461C123.343 19.469 124.079 19.0256 124.88 18.7421C125.782 18.4206 126.732 18.2627 127.688 18.2757C128.053 18.2757 128.418 18.2757 128.788 18.3309C129.158 18.3861 129.509 18.4111 129.854 18.4663C130.199 18.5215 130.515 18.5867 130.806 18.6619C131.068 18.7223 131.325 18.8011 131.576 18.8976L130.964 22.7092H130.728C130.195 21.8366 129.691 21.0793 129.213 20.4473C128.766 19.8475 128.271 19.2872 127.732 18.7722H127.653C127.367 18.7967 127.1 18.927 126.903 19.1384C126.652 19.4031 126.458 19.7172 126.331 20.0612C126.162 20.5129 126.043 20.9822 125.975 21.4604C125.888 22.0615 125.847 22.6685 125.852 23.276C125.842 23.9716 125.926 24.6653 126.104 25.3373C126.249 25.8793 126.492 26.3893 126.819 26.8418C127.104 27.231 127.474 27.547 127.9 27.7647C128.334 27.9783 128.81 28.0881 129.291 28.0856C129.561 28.0857 129.83 28.0656 130.096 28.0254C130.367 27.9803 130.619 27.9251 130.861 27.8599C131.09 27.7947 131.313 27.7091 131.527 27.6042C131.714 27.514 131.892 27.4066 132.06 27.2832L132.252 27.4286Z" fill="black"/>
<path d="M139.043 18.4161V28.0856L140 30.2322V30.3726H133.19V30.2322L134.177 28.1107V21.1946L133.249 19.69V19.5195L138.954 18.2908L139.043 18.4161ZM138.998 14.9757C139.001 15.3202 138.934 15.6617 138.801 15.9787C138.671 16.274 138.485 16.5401 138.253 16.7611C138.01 16.9827 137.727 17.1531 137.419 17.2626C137.08 17.3863 136.723 17.4474 136.363 17.4432C136.01 17.447 135.659 17.3858 135.327 17.2626C135.023 17.1539 134.744 16.9833 134.508 16.7611C134.277 16.541 134.094 16.2745 133.97 15.9787C133.838 15.6613 133.773 15.3199 133.777 14.9757C133.771 14.6313 133.837 14.2895 133.97 13.9726C134.094 13.6768 134.277 13.4103 134.508 13.1902C134.746 12.9703 135.024 12.8 135.327 12.6887C135.658 12.5614 136.009 12.4984 136.363 12.5031C136.724 12.4996 137.082 12.5643 137.419 12.6937C137.726 12.8061 138.009 12.9762 138.253 13.1952C138.486 13.4134 138.673 13.678 138.801 13.9726C138.935 14.2891 139.003 14.6309 138.998 14.9757Z" fill="black"/>
<path d="M27.7483 1.52694e-05H11.8435C11.0461 -0.00190446 10.2583 0.177216 9.53775 0.524294C8.81717 0.871372 8.18196 1.37764 7.67853 2.00613L7.06168 3.00919L0 14.0077H8.83821C10.0062 14.0452 11.1307 14.4669 12.0428 15.2093C12.9549 15.9518 13.6053 16.975 13.8964 18.1253L14.0148 18.7572L17.8985 39.1193C17.9819 39.622 18.2279 40.082 18.5974 40.4267C18.967 40.7714 19.439 40.981 19.939 41.0224C20.4389 41.0639 20.9382 40.9347 21.3578 40.6555C21.7774 40.3762 22.0934 39.9627 22.2559 39.4804L32.5696 8.35047L33.3148 6.11867C33.3148 5.95818 33.3148 5.79268 33.3444 5.61714C33.4233 2.53274 30.7931 1.52694e-05 27.7483 1.52694e-05Z" fill="url(#paint0_linear_1_226)"/>
<path d="M47.2506 6.32428H36.5618L32.2143 19.4292H43.5643C44.1631 19.4017 44.739 19.1871 45.2132 18.8146C45.6875 18.4421 46.0371 17.9298 46.2143 17.3479L49.0419 9.55413C49.5798 8.02446 48.6422 6.32428 47.2506 6.32428Z" fill="url(#paint1_linear_1_226)"/>
</g>
<defs>
<linearGradient id="paint0_linear_1_226" x1="12.5048" y1="-0.757294" x2="28.9723" y2="37.3928" gradientUnits="userSpaceOnUse">
<stop stop-color="#FA6123"/>
<stop offset="0.5" stop-color="#FA225F"/>
<stop offset="1" stop-color="#F5227A"/>
</linearGradient>
<linearGradient id="paint1_linear_1_226" x1="36.0832" y1="12.8793" x2="47.7145" y2="12.8793" gradientUnits="userSpaceOnUse">
<stop stop-color="#6006D7"/>
<stop offset="1" stop-color="#8C04D3"/>
</linearGradient>
<clipPath id="clip0_1_226">
<rect width="140" height="41" fill="white"/>
</clipPath>
</defs>
</svg>
